<svg width="130" height="130" viewBox="0 0 130 130" fill="none" xmlns="http://www.w3.org/2000/svg">
<path d="M111.751 116.256L122 2H8L8.13394 3.48266L18.2326 116.272L18.3183 117.211L64.5688 130H65.2974L111.655 117.2L111.741 116.261L111.751 116.256ZM65.0992 26.9546H98.2238L97.2274 38.4746L64.5474 52.9386L65.0938 55.5414H95.7594L92.229 95.8134L64.9812 103.333L37.7442 95.824L36.0298 76.5386H47.243L48.143 86.3146L48.2286 87.264L64.7562 91.6374H65.4688L81.8142 87.1146L81.8946 86.1706L83.4374 68.112L83.5606 66.64H35.0924L34.0744 55.0506L67.8742 40.6454L67.3386 38.032H32.6226L31.6314 26.9386H65.0616L65.0992 26.9546Z" fill="white"/>
</svg>
