<svg width="24" height="24" viewBox="0 0 24 24" fill="none" xmlns="http://www.w3.org/2000/svg">
<path fill-rule="evenodd" clip-rule="evenodd" d="M12.0099 0C5.36875 0 0 5.42664 0 12.1401C0 17.5066 3.43994 22.0492 8.21205 23.657C8.80869 23.7778 9.02724 23.3957 9.02724 23.0743C9.02724 22.7929 9.00757 21.8282 9.00757 20.823C5.6667 21.5467 4.97099 19.3758 4.97099 19.3758C4.43409 17.9689 3.63858 17.6072 3.63858 17.6072C2.54511 16.8635 3.71823 16.8635 3.71823 16.8635C4.93117 16.944 5.56763 18.1097 5.56763 18.1097C6.64118 19.9587 8.37111 19.4363 9.06706 19.1146C9.16638 18.3307 9.48473 17.788 9.82275 17.4866C7.15817 17.2052 4.35469 16.1601 4.35469 11.4968C4.35469 10.1703 4.8316 9.08494 5.58729 8.24085C5.46807 7.93943 5.0504 6.69303 5.70677 5.02483C5.70677 5.02483 6.72083 4.70317 9.00732 6.27098C9.98625 6.00524 10.9958 5.87005 12.0099 5.86892C13.024 5.86892 14.0577 6.00976 15.0123 6.27098C17.299 4.70317 18.3131 5.02483 18.3131 5.02483C18.9695 6.69303 18.5515 7.93943 18.4323 8.24085C19.2079 9.08494 19.6652 10.1703 19.6652 11.4968C19.6652 16.1601 16.8617 17.1849 14.1772 17.4866C14.6148 17.8685 14.9924 18.5919 14.9924 19.7377C14.9924 21.3657 14.9727 22.6723 14.9727 23.0741C14.9727 23.3957 15.1915 23.7778 15.7879 23.6572C20.56 22.0489 23.9999 17.5066 23.9999 12.1401C24.0196 5.42664 18.6312 0 12.0099 0Z" fill="black"/>
</svg>
