<svg width="39" height="39" viewBox="0 0 39 39" fill="none" xmlns="http://www.w3.org/2000/svg">
<path d="M31.98 3.12H7.01999C4.8672 3.12 3.12 4.8672 3.12 7.01999V31.98C3.12 34.1328 4.8672 35.88 7.01999 35.88H31.98C34.1328 35.88 35.88 34.1328 35.88 31.98V7.01999C35.88 4.8672 34.1328 3.12 31.98 3.12ZM13.26 15.6V30.42H8.57999V15.6H13.26ZM8.57999 11.2866C8.57999 10.1946 9.51599 9.35999 10.92 9.35999C12.324 9.35999 13.2054 10.1946 13.26 11.2866C13.26 12.3786 12.3864 13.26 10.92 13.26C9.51599 13.26 8.57999 12.3786 8.57999 11.2866ZM30.42 30.42H25.74C25.74 30.42 25.74 23.1972 25.74 22.62C25.74 21.06 24.96 19.5 23.01 19.4688H22.9476C21.06 19.4688 20.28 21.0756 20.28 22.62C20.28 23.3298 20.28 30.42 20.28 30.42H15.6V15.6H20.28V17.5968C20.28 17.5968 21.7854 15.6 24.8118 15.6C27.9084 15.6 30.42 17.7294 30.42 22.0428V30.42Z" fill="white"/>
</svg>
