<svg width="130" height="130" viewBox="0 0 130 130" fill="none" xmlns="http://www.w3.org/2000/svg">
<g clip-path="url(#clip0_1_4)">
<path fill-rule="evenodd" clip-rule="evenodd" d="M0 0H130V130H0V0ZM99.3796 108.983C93.3508 108.983 89.9438 105.842 87.3274 101.562L77.3988 107.331C80.9846 114.416 88.3134 119.822 99.6612 119.822C111.264 119.822 119.903 113.799 119.903 102.798C119.903 92.598 114.042 88.0642 103.664 83.6062L100.609 82.3008C95.3658 80.0258 93.0962 78.547 93.0962 74.88C93.0962 71.917 95.3712 69.6474 98.9462 69.6474C102.451 69.6474 104.71 71.1262 106.806 74.88L116.318 68.7754C112.293 61.6958 106.714 58.993 98.9462 58.993C88.037 58.993 81.055 65.9696 81.055 75.1346C81.055 85.0742 86.905 89.7812 95.7234 93.535L98.7784 94.8458C104.352 97.2834 107.673 98.7674 107.673 102.955C107.673 106.454 104.439 108.983 99.3796 108.983ZM52.038 108.902C47.84 108.902 46.0904 106.031 44.173 102.619L34.228 108.642C37.1096 114.741 42.7754 119.8 52.5524 119.8C63.3804 119.8 70.7958 114.042 70.7958 101.395V59.6862H58.5812V101.232C58.5812 107.337 56.0462 108.902 52.0324 108.902H52.038Z" fill="white"/>
</g>
<defs>
<clipPath id="clip0_1_4">
<rect width="130" height="130" fill="white"/>
</clipPath>
</defs>
</svg>
