<svg width="30" height="30" viewBox="0 0 30 30" fill="none" xmlns="http://www.w3.org/2000/svg">
<path d="M8.84 0C3.96609 0 0 3.96609 0 8.84V21.08C0 25.9539 3.96609 29.92 8.84 29.92H21.08C25.9539 29.92 29.92 25.9539 29.92 21.08V8.84C29.92 3.96609 25.9539 0 21.08 0H8.84ZM8.84 1.36H21.08C25.2188 1.36 28.56 4.70119 28.56 8.84V21.08C28.56 25.2188 25.2188 28.56 21.08 28.56H8.84C4.70119 28.56 1.36 25.2188 1.36 21.08V8.84C1.36 4.70119 4.70119 1.36 8.84 1.36ZM23.12 5.44C22.7593 5.44 22.4134 5.58329 22.1583 5.83834C21.9033 6.09338 21.76 6.43931 21.76 6.8C21.76 7.16069 21.9033 7.50662 22.1583 7.76166C22.4134 8.01671 22.7593 8.16 23.12 8.16C23.4807 8.16 23.8266 8.01671 24.0817 7.76166C24.3367 7.50662 24.48 7.16069 24.48 6.8C24.48 6.43931 24.3367 6.09338 24.0817 5.83834C23.8266 5.58329 23.4807 5.44 23.12 5.44ZM14.96 7.48C10.837 7.48 7.48 10.837 7.48 14.96C7.48 19.083 10.837 22.44 14.96 22.44C19.083 22.44 22.44 19.083 22.44 14.96C22.44 10.837 19.083 7.48 14.96 7.48ZM14.96 8.84C18.348 8.84 21.08 11.572 21.08 14.96C21.08 18.348 18.348 21.08 14.96 21.08C11.572 21.08 8.84 18.348 8.84 14.96C8.84 11.572 11.572 8.84 14.96 8.84Z" fill="#020072"/>
</svg>
