<svg width="35" height="35" viewBox="0 0 35 35" fill="none" xmlns="http://www.w3.org/2000/svg">
<path d="M17.5 1.96001C17.9191 1.96001 18.3123 2.12189 18.6071 2.41962L32.5804 16.3929C33.1932 17.0028 33.1932 17.9972 32.5804 18.6071L18.6071 32.5804C18.3123 32.8781 17.9191 33.04 17.5 33.04C17.0809 33.04 16.6877 32.8781 16.3929 32.5804L2.41961 18.6071C1.8068 17.9972 1.8068 17.0028 2.41961 16.3929L11.5366 7.27587L13.219 8.95821C12.8143 10.4613 13.2219 12.1003 14.3608 13.2392C14.6325 13.5109 14.9418 13.7451 15.28 13.9388V21.0642C13.933 21.8417 13.06 23.2899 13.06 24.9C13.06 27.3484 15.0516 29.34 17.5 29.34C19.9484 29.34 21.94 27.3484 21.94 24.9C21.94 23.2899 21.067 21.8417 19.72 21.0642V15.4592L20.619 16.3582C20.2143 17.8613 20.6219 19.5003 21.7608 20.6392C22.5991 21.4775 23.7148 21.94 24.9 21.94C26.0852 21.94 27.2009 21.4775 28.0392 20.6392C29.7707 18.9077 29.7707 16.0923 28.0392 14.3608C27.2038 13.5254 26.0967 13.0658 24.9145 13.0658C24.5242 13.0658 24.134 13.1178 23.7582 13.219L21.781 11.2418C22.1857 9.73868 21.7781 8.0997 20.6392 6.96079C19.8038 6.1254 18.6967 5.66579 17.5145 5.66579C17.1242 5.66579 16.734 5.71782 16.3582 5.819L14.6759 4.13665L16.3929 2.41962C16.6877 2.12189 17.0809 1.96001 17.5 1.96001ZM17.5 0.480011C16.7195 0.480011 15.9391 0.777746 15.3465 1.37321L12.583 4.13665L16.0027 7.55626C16.468 7.28454 16.9912 7.14579 17.5145 7.14579C18.266 7.14579 19.0176 7.43196 19.5928 8.0072C20.567 8.98134 20.7086 10.4613 20.0409 11.5945L23.4027 14.9563C23.868 14.6845 24.3913 14.5458 24.9145 14.5458C25.666 14.5458 26.4176 14.832 26.9928 15.4072C28.1491 16.5634 28.1491 18.4366 26.9928 19.5928C26.4147 20.1709 25.6573 20.46 24.9 20.46C24.1427 20.46 23.3853 20.1709 22.8072 19.5928C21.833 18.6187 21.6914 17.1387 22.3591 16.0027L18.9973 12.6409C18.7574 12.7825 18.503 12.8866 18.24 12.9531V22.0441C19.5148 22.3736 20.46 23.5212 20.46 24.9C20.46 26.5361 19.1361 27.86 17.5 27.86C15.8668 27.86 14.54 26.5361 14.54 24.9C14.54 23.5212 15.4852 22.3736 16.76 22.0441V12.9531C16.2657 12.8259 15.7945 12.5802 15.4072 12.1928C14.433 11.2187 14.2914 9.73868 14.9591 8.60556L11.5366 5.18306L1.3732 15.3465C0.182265 16.5345 0.182265 18.4655 1.3732 19.6535L15.3465 33.6268C15.9391 34.2223 16.7195 34.52 17.5 34.52C18.2805 34.52 19.0609 34.2223 19.6535 33.6268L33.6268 19.6535C34.8177 18.4655 34.8177 16.5345 33.6268 15.3465L19.6535 1.37321C19.0609 0.777746 18.2805 0.480011 17.5 0.480011Z" fill="#020072"/>
</svg>
