<svg width="38" height="29" viewBox="0 0 38 29" fill="none" xmlns="http://www.w3.org/2000/svg">
<path d="M18.986 0.73999C13.3087 0.73999 7.97735 1.16999 5.13867 1.77132C3.24735 2.20132 1.61133 3.49132 1.26867 5.46999C0.926018 7.53265 0.580002 10.63 0.580002 14.5C0.580002 18.37 0.922659 21.38 1.35266 23.53C1.69867 25.4213 3.33133 26.7987 5.22266 27.2287C8.23602 27.83 13.3927 28.26 19.07 28.26C24.7473 28.26 29.904 27.83 32.914 27.2287C34.8087 26.7987 36.4413 25.5087 36.784 23.53C37.13 21.38 37.56 18.286 37.644 14.416C37.644 10.546 37.214 7.44866 36.784 5.29866C36.4413 3.40733 34.8087 2.02999 32.914 1.59999C29.904 1.16999 24.66 0.73999 18.986 0.73999ZM18.986 2.45999C25.1773 2.45999 30.1627 2.97397 32.5713 3.40397C33.8613 3.74999 34.8927 4.60999 35.064 5.72866C35.5813 8.47999 35.924 11.406 35.924 14.416C35.84 18.1113 35.41 21.1213 35.064 23.2713C34.8087 24.904 33.0887 25.4213 32.5713 25.596C29.474 26.1973 24.314 26.624 19.154 26.624C13.994 26.624 8.75 26.2813 5.74 25.596C4.45 25.25 3.41867 24.39 3.24735 23.2713C2.55867 20.8626 2.3 17.6813 2.3 14.5C2.3 10.5426 2.64602 7.61999 2.98867 5.81601C3.24735 4.17999 5.05133 3.66265 5.48133 3.49132C8.32 2.88999 13.5673 2.45999 18.986 2.45999ZM14.34 7.61999V21.38L26.38 14.5L14.34 7.61999ZM16.06 10.546L22.94 14.5L16.06 18.454V10.546Z" fill="#020072"/>
</svg>
